<svg xmlns="http://www.w3.org/2000/svg" viewBox="0 0 461.14 105.45"><title>Asset 6</title><g id="Layer_2" data-name="Layer 2"><g id="Layer_6" data-name="Layer 6"><path d="M29.1,3.3c11.25,0,19,1.2,26.4,7.65,8.1,7.2,10.2,17,10.2,24.15,0,3.9-.6,14.7-8.25,22.35C51.9,63,43.65,66.3,32.1,66.3H19.5v37.05H0V3.3ZM19.5,49.5h8c3.75,0,8.55,0,12.75-3.15a14.93,14.93,0,0,0,5.4-11.7,13.78,13.78,0,0,0-5.55-11.4c-4-2.85-9.15-3.15-13.8-3.15H19.5Z"/><path d="M128.05,45.45A34.22,34.22,0,0,1,139,71,34.12,34.12,0,0,1,128.05,96.3c-5.55,5.1-14,9.15-26.25,9.15s-20.7-4-26.25-9.15A34.12,34.12,0,0,1,64.6,71a34.22,34.22,0,0,1,11-25.5c5.55-5.1,14-9.15,26.25-9.15S122.5,40.35,128.05,45.45Zm-8,25.5a18.3,18.3,0,1,0-18.3,18.3A18.12,18.12,0,0,0,120.1,71Z"/><path d="M181.35,53.85A15.19,15.19,0,0,0,170.7,49.5c-4.35,0-7,2.1-7,5.25,0,1.65.75,4.2,5.85,5.85L173.85,62c5.1,1.65,12.75,4.2,16.5,9.3a18.83,18.83,0,0,1,3.3,10.8,21.59,21.59,0,0,1-7.2,16.5c-5.25,4.8-11.55,6.9-19.5,6.9-13.5,0-21.15-6.45-25.2-10.8l9.6-11.1c3.6,4.2,9,7.5,14.4,7.5,5.1,0,9-2.55,9-7,0-4-3.3-5.7-5.7-6.6l-4.2-1.5c-4.65-1.65-10-3.75-13.95-7.8a17.42,17.42,0,0,1-5-12.45A19.29,19.29,0,0,1,152.7,41c5.1-4.05,11.7-4.65,17-4.65a32.39,32.39,0,0,1,20.7,6.9Z"/><path d="M209.7,0a11,11,0,0,1,11,11,10.95,10.95,0,0,1-21.9,0A11,11,0,0,1,209.7,0Zm9.15,38.4v64.95h-18.3V38.4Z"/><path d="M251.55,54v49.35h-18.3V54h-7.2V38.4h7.2V16.2h18.3V38.4h12.6V54Z"/><path d="M270.75,38.4h18.3v9.75a21.91,21.91,0,0,1,8.1-9,19.84,19.84,0,0,1,10.79-2.85,22.52,22.52,0,0,1,7.8,1.5l-2.4,17.1a13.76,13.76,0,0,0-8.55-2.4c-3.44,0-8.55.75-12.14,5.25s-3.6,9.9-3.6,14.4v31.2h-18.3Z"/><path d="M380.39,45.45A34.22,34.22,0,0,1,391.34,71,34.12,34.12,0,0,1,380.39,96.3c-5.55,5.1-13.95,9.15-26.25,9.15s-20.7-4-26.24-9.15a34.09,34.09,0,0,1-11-25.35,34.19,34.19,0,0,1,11-25.5c5.54-5.1,13.94-9.15,26.24-9.15S374.84,40.35,380.39,45.45ZM372.44,71a18.3,18.3,0,1,0-18.3,18.3A18.12,18.12,0,0,0,372.44,71Z"/><path d="M398.44,38.4h18.3v8.4c3.45-4.8,9.6-10.5,20.1-10.5,5.7,0,14.1,1.65,19.2,8,4.5,5.55,5.1,12,5.1,18.3v40.8h-18.3V68c0-3.6-.15-9.3-3.45-12.75a11.72,11.72,0,0,0-8.55-3.3c-4.8,0-8.55,1.65-11.25,5.7s-2.85,8.85-2.85,12.6v33.15h-18.3Z"/></g></g></svg>