<svg xmlns="http://www.w3.org/2000/svg" viewBox="0 0 230.18 200.01"><defs><style>.cls-1{fill:#fff;}</style></defs><title>Asset 2</title><g id="Layer_2" data-name="Layer 2"><g id="Layer_6" data-name="Layer 6"><path class="cls-1" d="M230.18,178.87,177.46,87.56,161,87.49l8.23-14.21L126.91,0H103.19L50.92,90.57l8,15-16.47.06L0,178.72,11.36,200H116.93L125,185.33,133.23,200h85.5ZM110.12,182h9.53L115,190.39Zm-94.95,11.7L8.92,182h93.87l6.76,11.7ZM161,93.82l9.3,0-4.48,8.3ZM60.5,143.38l-8.61,14.9H39.19l15-25.89Zm8.58,14.9H59.22l4.93-8.55ZM59.64,129.2h12.7l18.6,32.23-6.35,11Zm25-49.56,6.35,11-18.6,32.23H59.65Zm85.87,43.22H157.77L139.16,90.63l6.35-11Zm-70.36,35.4,6.36-11h17.19l6.35,11Zm6.36-17.35L97.87,126l8.59-14.88h17.19L132.23,126l-8.58,14.88ZM130,93.8l-6.35,11H106.46l-6.36-11ZM101,108l-8.6,14.88H79.67L94.61,97Zm36.76,14.88L129.14,108l6.35-11,14.95,25.88ZM109.94,70.43l5.11-8.85,5.06,8.76Zm17.37-.32-8.59-14.88,6.35-11L140,70.11ZM140,76.45l-6.35,11H96.44l-6.36-11ZM92.37,129.2l8.6,14.88-6.36,11L79.67,129.2Zm58.07,0-14.95,25.89-6.35-11,8.59-14.88Zm7.33,0h12.69l-25,43.24-6.36-11Zm23.13,46.41H151l6.35-11h17.2ZM161,158.28l4.93-8.55,4.94,8.55Zm-5.5-74L125.08,31.53,102.8,70.11H90.1l35-60.59L161.9,73.28ZM119.58,6.34,72.75,87.46H60L106.85,6.34ZM69.08,93.8l-4.81,8.33L59.82,93.8ZM58.65,111.87,28.19,164.62H72.76l6.35,11h-70l36.93-63.7Zm37.79,52.75h37.22l6.35,11H90.08ZM191.89,182,169.6,143.39l6.36-11,35.39,61.29H137L130.42,182Zm-22.3-73.32,6.14-11.41L222.92,179l-6.16,11.37Z"/></g></g></svg>