<svg xmlns="http://www.w3.org/2000/svg" viewBox="0 0 733.4 195.01"><defs><style>.cls-1{fill:none;stroke:#a34862;stroke-miterlimit:10;stroke-width:0.25px;}.cls-2{fill:#e9e9e9;}.cls-3{fill:#f2f3f2;}.cls-4{fill:#b1b1b1;}.cls-5{fill:#fff;}</style></defs><title>Asset 6</title><g id="Layer_2" data-name="Layer 2"><g id="Layer_6" data-name="Layer 6"><polyline class="cls-1" points="94.08 185.81 94.08 185.82 94 185.95"/><rect class="cls-1" x="91.6" y="159.36" width="41.17" height="0.01"/><polygon class="cls-1" points="64.13 146.71 71.45 159.37 71.43 159.37 64.13 146.71"/><polygon class="cls-1" points="91.19 123.71 101.7 105.54 122.69 105.54 133.18 123.71 122.69 141.89 101.7 141.89 91.19 123.71"/><line class="cls-1" x1="142.85" y1="176.85" x2="142.85" y2="176.85"/><line class="cls-1" x1="111.78" y1="159.36" x2="111.79" y2="159.37"/><line class="cls-1" x1="91.6" y1="159.36" x2="91.61" y2="159.37"/><polygon class="cls-2" points="71.03 123.71 91.19 123.71 101.7 141.89 91.6 159.36 71.03 123.71"/><polygon class="cls-2" points="30.26 159.37 50.85 123.71 60.93 141.17 60.93 141.18 50.43 159.37 30.26 159.37"/><polygon class="cls-2" points="81.53 70.59 102.1 34.94 112.18 17.49 122.28 0 122.29 0 163.06 70.59 152.93 88.06 152.93 88.06 142.85 70.59 122.28 34.94 112.18 52.42 101.7 70.59 81.53 70.59"/><polygon class="cls-2" points="132.77 159.37 132.77 159.36 153.35 123.71 173.52 123.71 163.44 141.17 163.44 141.18 152.93 159.37 142.85 176.83 132.77 159.37"/><polygon class="cls-2" points="132.77 88.06 142.85 70.59 152.93 88.06 163.44 106.24 173.52 123.71 153.35 123.71 132.77 88.06"/><polygon class="cls-2" points="163.44 106.24 173.18 88.15 224.46 176.97 214.69 195.01 173.52 123.71 163.44 106.24"/><polygon class="cls-2" points="101.69 176.83 122.23 176.83 122.23 176.83 112.2 195.01 112.18 195.01 101.69 176.83"/><polygon class="cls-2" points="71.03 123.71 81.11 106.24 91.6 88.06 101.7 105.54 91.19 123.71 71.03 123.71"/><polygon class="cls-3" points="0 176.83 40.89 106.31 60.95 106.24 50.85 123.71 30.26 159.37 71.45 159.37 81.52 176.82 81.52 176.83 81.52 176.83 0 176.83"/><polygon class="cls-3" points="51.26 88.06 102.09 0 122.28 0 81.53 70.59 81.52 70.59 81.52 70.61 71.43 88.06 51.26 88.06"/><polygon class="cls-3" points="142.85 176.85 142.85 176.83 152.93 159.37 173.94 159.37 184.02 176.83 142.85 176.83 142.85 176.85"/><polygon class="cls-3" points="122.69 141.89 133.18 123.71 153.35 123.71 132.77 159.36 122.69 141.89"/><polygon class="cls-3" points="81.52 70.61 81.52 70.59 142.85 70.59 132.77 88.06 91.6 88.06 81.52 70.61"/><polygon class="cls-3" points="152.93 88.06 173.18 88.15 163.44 106.24 152.93 88.06"/><polygon class="cls-3" points="111.78 159.36 132.77 159.36 122.69 141.89 101.7 141.89 91.6 159.36 111.78 159.36"/><polygon class="cls-3" points="50.85 123.71 60.95 106.24 71.03 88.78 71.03 88.77 71.43 88.06 81.52 70.61 91.6 88.06 81.11 106.24 71.03 123.71 50.85 123.71"/><polygon class="cls-4" points="91.6 88.06 132.77 88.06 122.69 105.54 101.7 105.54 91.6 88.06"/><polygon class="cls-4" points="122.69 105.54 132.77 88.06 153.35 123.71 133.18 123.71 122.69 105.54"/><polygon class="cls-4" points="112.18 52.42 122.28 34.94 142.85 70.59 122.69 70.59 112.18 52.42"/><polygon class="cls-4" points="122.23 176.83 122.23 176.83 184.02 176.83 173.94 159.37 163.44 141.18 163.44 141.17 173.52 123.71 194.12 159.37 204.27 176.97 214.69 195.01 132.36 195.01 122.23 176.83"/><polygon class="cls-4" points="50.85 123.71 71.03 123.71 91.6 159.36 91.6 159.37 81.52 176.82 71.45 159.37 60.93 141.18 60.93 141.17 50.85 123.71"/><polygon class="cls-4" points="81.52 176.83 81.52 176.82 91.6 159.37 132.77 159.37 142.85 176.83 81.52 176.83"/><polygon class="cls-4" points="0 176.83 101.69 176.83 112.18 195.01 9.69 195.01 0 176.83"/><polygon class="cls-4" points="51.26 88.06 71.43 88.06 60.95 106.24 51.26 88.06"/><path class="cls-5" d="M301.36,46.23c11.25,0,19.05,1.2,26.4,7.65C335.86,61.08,338,70.83,338,78c0,3.9-.6,14.7-8.25,22.35-5.55,5.55-13.8,8.85-25.35,8.85h-12.6v37.05h-19.5V46.23Zm-9.6,46.2h7.95c3.75,0,8.55,0,12.75-3.15a14.93,14.93,0,0,0,5.4-11.7,13.78,13.78,0,0,0-5.55-11.4c-4.05-2.85-9.15-3.15-13.8-3.15h-6.75Z"/><path class="cls-5" d="M400.31,88.38a35,35,0,0,1,0,50.85c-5.55,5.1-13.95,9.15-26.25,9.15s-20.7-4-26.25-9.15a35,35,0,0,1,0-50.85c5.55-5.1,13.95-9.15,26.25-9.15S394.76,83.28,400.31,88.38Zm-7.95,25.5a18.3,18.3,0,1,0-18.3,18.3A18.12,18.12,0,0,0,392.36,113.88Z"/><path class="cls-5" d="M453.61,96.78A15.19,15.19,0,0,0,443,92.43c-4.35,0-7,2.1-7,5.25,0,1.65.75,4.2,5.85,5.85l4.35,1.35c5.1,1.65,12.75,4.2,16.5,9.3a18.83,18.83,0,0,1,3.3,10.8,21.59,21.59,0,0,1-7.2,16.5c-5.25,4.8-11.55,6.9-19.5,6.9-13.5,0-21.15-6.45-25.2-10.8l9.6-11.1c3.6,4.2,9,7.5,14.4,7.5,5.1,0,9-2.55,9-7,0-4.05-3.3-5.7-5.7-6.6l-4.2-1.5c-4.65-1.65-10.05-3.75-13.95-7.8a17.42,17.42,0,0,1-5-12.45A19.29,19.29,0,0,1,425,83.88c5.1-4,11.7-4.65,17-4.65a32.39,32.39,0,0,1,20.7,6.9Z"/><path class="cls-5" d="M482,42.93a10.95,10.95,0,1,1-10.95,11A11,11,0,0,1,482,42.93Zm9.15,38.4v65h-18.3V81.33Z"/><path class="cls-5" d="M523.81,96.93v49.35h-18.3V96.93h-7.2V81.33h7.2V59.13h18.3v22.2h12.6v15.6Z"/><path class="cls-5" d="M543,81.33h18.3v9.75a21.91,21.91,0,0,1,8.1-9,19.9,19.9,0,0,1,10.8-2.85,22.52,22.52,0,0,1,7.8,1.5l-2.4,17.1a13.76,13.76,0,0,0-8.55-2.4c-3.45,0-8.55.75-12.15,5.25-3.45,4.35-3.6,9.9-3.6,14.4v31.2H543Z"/><path class="cls-5" d="M652.65,88.38a35,35,0,0,1,0,50.85c-5.55,5.1-13.95,9.15-26.24,9.15s-20.7-4-26.25-9.15a35,35,0,0,1,0-50.85c5.55-5.1,14-9.15,26.25-9.15S647.1,83.28,652.65,88.38Zm-7.95,25.5a18.3,18.3,0,1,0-18.29,18.3A18.12,18.12,0,0,0,644.7,113.88Z"/><path class="cls-5" d="M670.7,81.33H689v8.4c3.45-4.8,9.6-10.5,20.1-10.5,5.7,0,14.1,1.65,19.2,8,4.5,5.55,5.1,12,5.1,18.3v40.8H715.1v-35.4c0-3.6-.15-9.3-3.45-12.75a11.72,11.72,0,0,0-8.55-3.3c-4.8,0-8.55,1.65-11.25,5.7-2.7,4.2-2.85,8.85-2.85,12.6v33.15H670.7Z"/></g></g></svg>