<svg xmlns="http://www.w3.org/2000/svg" viewBox="0 0 224.46 195.01"><defs><style>.cls-1{fill:#fff;}</style></defs><title>Asset 1</title><g id="Layer_2" data-name="Layer 2"><g id="Layer_6" data-name="Layer 6"><path class="cls-1" d="M173.15,87.55l-19.33-.08,9.67-16.69L122.6,0H101.77L50.91,88.12l9.27,17.39L41,105.57,0,176.27,10,195H112.59l9.57-17.33L131.84,195h82.54l10.08-18.6ZM81.73,72.14l9.24,16-20,34.73H52.46Zm90.2,50.72H153.46L133.41,88.13l9.23-16ZM141.47,71.45l-9.23,16H92.13l-9.24-16h58.58Zm-19.24,70.8,9.24,16H92.91l9.25-16Zm0-1.34H102.16l-10-17.38,10-17.38h20.07l10,17.38Zm-49.75-18L91.75,89.47l9.25,16L91,122.86Zm29.68-18-9.25-16h38.56l-9.24,16Zm31.26,18-10-17.38,9.24-16,19.28,33.38ZM72.48,124.2H91l10,17.38-9.26,16Zm60.15,33.39-9.24-16,10-17.38h18.49ZM123,70.11,113,52.73l9.24-16,19.26,33.39Zm-1.56,0,.11.19-18.83.17.21-.36,9.25-16ZM51.28,124.89l9.24,16-10.05,17.4H32Zm10,17.34,9.26,16.05H52Zm10.83,16.05L52.44,124.2H70.93l20,34.73-9.24,16Zm20,1.34h40.11l9.23,16H82.89Zm81,0,9.24,16H143.81l9.24-16Zm-19.3-1.34,9.26-16.05,9.27,16.05Zm-11.19,16.66-9.23-16,20.05-34.73h18.47Zm29-86.06-8.59,15.91-7.24-12.54-2-3.45ZM122.21,2l39.72,68.76-9.27,16L122.21,34l-10.8,18.7h0l-10,17.37H82.91Zm-19.66-.68H121L71.33,87.46H52.85Zm-32,87.46-9.23,16-8.53-16ZM41.77,106.92l18.36-.07L29.66,159.62H71.34l9.24,16H2Zm-31,86.74L1.9,177h99.47l9.65,16.7ZM112.19,193l-9.26-16H121Zm20.43.68L123.3,177h61.4L163.85,140.9v0l9.25-16,39.72,68.78ZM214,193l-50.1-86.78,8.92-16.59,50.13,86.84Z"/></g></g></svg>