<svg xmlns="http://www.w3.org/2000/svg" viewBox="0 0 224.46 195.01"><defs><style>.cls-1{fill:none;stroke:#a34862;stroke-miterlimit:10;stroke-width:0.25px;}.cls-2{fill:#ccc;}.cls-3{fill:#d7d7d7;}.cls-4{fill:#838383;}</style></defs><title>Asset 3</title><g id="Layer_2" data-name="Layer 2"><g id="Layer_6" data-name="Layer 6"><polyline class="cls-1" points="94.08 185.81 94.08 185.82 94 185.95"/><rect class="cls-1" x="91.6" y="159.36" width="41.17" height="0.01"/><polygon class="cls-1" points="64.13 146.71 71.45 159.37 71.43 159.37 64.13 146.71"/><polygon class="cls-1" points="91.19 123.71 101.7 105.54 122.69 105.54 133.18 123.71 122.69 141.89 101.7 141.89 91.19 123.71"/><line class="cls-1" x1="142.85" y1="176.85" x2="142.85" y2="176.85"/><line class="cls-1" x1="111.78" y1="159.36" x2="111.79" y2="159.37"/><line class="cls-1" x1="91.6" y1="159.36" x2="91.61" y2="159.37"/><polygon class="cls-2" points="71.03 123.71 91.19 123.71 101.7 141.89 91.6 159.36 71.03 123.71"/><polygon class="cls-2" points="30.26 159.37 50.85 123.71 60.93 141.17 60.93 141.18 50.43 159.37 30.26 159.37"/><polygon class="cls-2" points="81.53 70.59 102.1 34.94 112.18 17.49 122.28 0 122.29 0 163.06 70.59 152.93 88.06 152.93 88.06 142.85 70.59 122.28 34.94 112.18 52.42 101.7 70.59 81.53 70.59"/><polygon class="cls-2" points="132.77 159.37 132.77 159.36 153.35 123.71 173.52 123.71 163.44 141.17 163.44 141.18 152.93 159.37 142.85 176.83 132.77 159.37"/><polygon class="cls-2" points="132.77 88.06 142.85 70.59 152.93 88.06 163.44 106.24 173.52 123.71 153.35 123.71 132.77 88.06"/><polygon class="cls-2" points="163.44 106.24 173.18 88.15 224.46 176.97 214.69 195.01 173.52 123.71 163.44 106.24"/><polygon class="cls-2" points="101.69 176.83 122.23 176.83 122.23 176.83 112.2 195.01 112.18 195.01 101.69 176.83"/><polygon class="cls-2" points="71.03 123.71 81.11 106.24 91.6 88.06 101.7 105.54 91.19 123.71 71.03 123.71"/><polygon class="cls-3" points="0 176.83 40.89 106.31 60.95 106.24 50.85 123.71 30.26 159.37 71.45 159.37 81.52 176.82 81.52 176.83 81.52 176.83 0 176.83"/><polygon class="cls-3" points="51.26 88.06 102.09 0 122.28 0 81.53 70.59 81.52 70.59 81.52 70.61 71.43 88.06 51.26 88.06"/><polygon class="cls-3" points="142.85 176.85 142.85 176.83 152.93 159.37 173.94 159.37 184.02 176.83 142.85 176.83 142.85 176.85"/><polygon class="cls-3" points="122.69 141.89 133.18 123.71 153.35 123.71 132.77 159.36 122.69 141.89"/><polygon class="cls-3" points="81.52 70.61 81.52 70.59 142.85 70.59 132.77 88.06 91.6 88.06 81.52 70.61"/><polygon class="cls-3" points="152.93 88.06 173.18 88.15 163.44 106.24 152.93 88.06"/><polygon class="cls-3" points="111.78 159.36 132.77 159.36 122.69 141.89 101.7 141.89 91.6 159.36 111.78 159.36"/><polygon class="cls-3" points="50.85 123.71 60.95 106.24 71.03 88.78 71.03 88.77 71.43 88.06 81.52 70.61 91.6 88.06 81.11 106.24 71.03 123.71 50.85 123.71"/><polygon class="cls-4" points="91.6 88.06 132.77 88.06 122.69 105.54 101.7 105.54 91.6 88.06"/><polygon class="cls-4" points="122.69 105.54 132.77 88.06 153.35 123.71 133.18 123.71 122.69 105.54"/><polygon class="cls-4" points="112.18 52.42 122.28 34.94 142.85 70.59 122.69 70.59 112.18 52.42"/><polygon class="cls-4" points="122.23 176.83 122.23 176.83 184.02 176.83 173.94 159.37 163.44 141.18 163.44 141.17 173.52 123.71 194.12 159.37 204.27 176.97 214.69 195.01 132.36 195.01 122.23 176.83"/><polygon class="cls-4" points="50.85 123.71 71.03 123.71 91.6 159.36 91.6 159.37 81.52 176.82 71.45 159.37 60.93 141.18 60.93 141.17 50.85 123.71"/><polygon class="cls-4" points="81.52 176.83 81.52 176.82 91.6 159.37 132.77 159.37 142.85 176.83 81.52 176.83"/><polygon class="cls-4" points="0 176.83 101.69 176.83 112.18 195.01 9.69 195.01 0 176.83"/><polygon class="cls-4" points="51.26 88.06 71.43 88.06 60.95 106.24 51.26 88.06"/></g></g></svg>