<?xml version="1.0" encoding="UTF-8" standalone="no"?>
<svg width="16px" height="16px" viewBox="0 0 16 16" version="1.1" xmlns="http://www.w3.org/2000/svg" xmlns:xlink="http://www.w3.org/1999/xlink" xmlns:sketch="http://www.bohemiancoding.com/sketch/ns">
    <!-- Generator: Sketch 3.4 (15588) - http://www.bohemiancoding.com/sketch -->
    <title>fb</title>
    <desc>Created with Sketch.</desc>
    <defs/>
    <g id="Page-1" stroke="none" stroke-width="1" fill="none" fill-rule="evenodd" sketch:type="MSPage">
        <g id="website" sketch:type="MSArtboardGroup" transform="translate(-1294.000000, -26.000000)" fill="#FFFFFF">
            <g id="//-Hero-+-=-Link-External-Copy-+-=-Link-Internal-Copy" sketch:type="MSLayerGroup">
                <g id="//-Hero" sketch:type="MSShapeGroup">
                    <g id="=-BG">
                        <path d="M1294,27.9940603 C1294,26.8927712 1294.89451,26 1295.99406,26 L1308.00594,26 C1309.10723,26 1310,26.8945138 1310,27.9940603 L1310,40.0059397 C1310,41.1072288 1309.10549,42 1308.00594,42 L1295.99406,42 C1294.89277,42 1294,41.1054862 1294,40.0059397 L1294,27.9940603 Z M1302.23182,42 L1302.23182,35.9314116 L1300.06425,35.9314116 L1300.06425,33.7640586 L1302.23182,33.7640586 L1302.18501,32.2304396 C1302.18501,30.2035311 1303.69002,29 1305.46443,29 C1306.31425,29 1306.76181,29.0931962 1306.97464,29.122022 L1306.97464,31.1738551 L1305.46985,31.1734216 C1304.50494,31.1734216 1304.32462,31.661076 1304.32462,32.3468265 L1304.39918,33.7640586 L1307,33.7640586 L1306.56631,35.9314116 L1304.39918,35.9314116 L1304.39918,42 L1302.23182,42 Z" id="fb"/>
                    </g>
                </g>
            </g>
        </g>
    </g>
</svg>