<svg xmlns="http://www.w3.org/2000/svg" width="16" height="16" xmlns:xlink="http://www.w3.org/1999/xlink">
  <defs>
    <path id="a" d="M0 15.9980952h15.9949524V.00504762H0z"/>
  </defs>
  <g fill="none" fill-rule="evenodd">
    <mask id="b" fill="#fff">
      <use xlink:href="#a"/>
    </mask>
    <path fill="#FFF" d="M4.70012698.0531746C3.84888888.092 3.2675238.22720635 2.7588254.42492063c-.52590477.2043492-.97190477.47780953-1.4165397.9224127-.44460316.44463492-.71806348.89063492-.92241268 1.4165397-.1977143.5086984-.33292064 1.09006348-.37174604 1.94130157C.00920635 5.55819048 0 5.83053968 0 8.00253968 0 10.1745079.00920635 10.4468571.04812698 11.299873c.0388254.8512381.17403175 1.4326032.37174604 1.9413016.2043492.5259048.47780952.9719048.9224127 1.4165397.4446349.4446032.8906349.7180635 1.41653968.9224444.5086984.1976826 1.0900635.3328889 1.94130158.3717143C5.55314286 15.9907937 5.82549206 16 7.99749206 16c2.17196824 0 2.44431744-.0092063 3.29733334-.048127.8512381-.0388254 1.4326032-.1740317 1.9413016-.3717143.5259047-.2043809.9719047-.4778412 1.4165397-.9224444.4446031-.4446349.7180635-.8906349.9224444-1.4165397.1976826-.5086984.3328889-1.0900635.3717143-1.9413016.0389206-.8530159.048127-1.1253651.048127-3.29733332 0-2.172-.0092064-2.4443492-.048127-3.29736508-.0388254-.8512381-.1740317-1.43260317-.3717143-1.94130158-.2043809-.52590477-.4778413-.97190477-.9224444-1.4165397-.444635-.44460316-.890635-.71806348-1.4165397-.92241268C12.7274286.22720634 12.1460635.092 11.2948254.0531746 10.4418095.01425397 10.1694603.00504762 7.99749206.00504762c-2.172 0-2.4443492.00920635-3.29736508.04812698zm3.29988755 1.95187302c1.95415182 0 2.18563447.00746624 2.95735957.0426767.713564.03253774 1.1010824.15176526 1.358973.25199307.341617.1327655.5854175.29135786.8415069.54747624.2561183.25608932.4147107.49988984.5474762.8415069.1002278.25789052.2194554.645409.2519931 1.35897293C13.9925338 5.8193986 14 6.05088127 14 8.00506213c0 1.95415183-.0074662 2.18563446-.0426767 2.95735956-.0325377.713564-.1517653 1.1010825-.2519931 1.358973-.1327655.341617-.2913579.5854176-.5474762.8415069-.2560894.2561184-.4998899.4147107-.8415069.5474763-.2578906.1002278-.645409.2194553-1.358973.251993-.7716089.0352105-1.0030625.0426767-2.95735957.0426767-1.95432614 0-2.1857507-.0074662-2.95738866-.0426767-.71356392-.0325377-1.1010824-.1517652-1.35897293-.251993-.34161706-.1327656-.58541758-.2913579-.8415069-.5474763-.25608933-.2560893-.41471073-.4998899-.54747627-.8415069-.1002278-.2578905-.21945533-.645409-.25199306-1.358973C2.00746628 10.1906966 2 9.95921395 2 8.00506212c0-1.95418087.00746625-2.18566354.0426767-2.95738865.03253774-.71356394.15176526-1.10108243.25199307-1.35897295.13276554-.34161706.2913579-.58541758.54747627-.8415069.25608932-.25611838.49988984-.41471074.8415069-.54747627.25789052-.10022782.645409-.21945534 1.35897293-.25199307.7717251-.03521047 1.00320778-.0426767 2.95738866-.0426767z" mask="url(#b)"/>
    <path fill="#FFF" d="M8.0000119 10C6.89542535 10 6 9.10457466 6 8.0000119 6 6.89542535 6.89542534 6 8.0000119 6 9.10457467 6 10 6.89542534 10 8.0000119 10 9.10457467 9.10457466 10 8.0000119 10zm.00000356-6C5.7908468 4 4 5.7908468 4 8.00001546 4 10.2091532 5.7908468 12 8.00001546 12 10.2091532 12 12 10.2091532 12 8.00001546 12 5.7908468 10.2091532 4 8.00001546 4zM13 4.00001654C13 4.55230644 12.5522734 5 11.9999835 5 11.4477266 5 11 4.55230645 11 4.00001654 11 3.44772664 11.4477266 3 11.9999835 3 12.5522734 3 13 3.44772663 13 4.00001654"/>
  </g>
</svg>