<svg width="1120" height="2" viewBox="0 0 1120 2" xmlns="http://www.w3.org/2000/svg">
  <title>
    img_footer_divider
  </title>
  <g fill="none" fill-rule="evenodd">
    <path d="M1119.00178 0H220.606061c-.551301 0-.998218.44771525-.998218 1s.446917 1 .998218 1h898.395719c.5513 0 .99822-.44771525.99822-1s-.44692-1-.99822-1zM200.641711 0H165.7041c-.5513 0-.998218.44771525-.998218 1s.446918 1 .998218 1h34.937611c.551301 0 .998218-.44771525.998218-1s-.446917-1-.998218-1zM145.73975 0H.99821747C.44691717 0 0 .44771525 0 1s.44691718 1 .99821747 1H145.73975c.551301 0 .998218-.44771525.998218-1s-.446917-1-.998218-1z" fill="#99AAB5"/>
    <path d="M0 0h1120v2H0z"/>
  </g>
</svg>