<?xml version="1.0" encoding="UTF-8" standalone="no"?>
<svg width="19px" height="16px" viewBox="0 0 19 16" version="1.1" xmlns="http://www.w3.org/2000/svg" xmlns:xlink="http://www.w3.org/1999/xlink" xmlns:sketch="http://www.bohemiancoding.com/sketch/ns">
    <!-- Generator: Sketch 3.4 (15588) - http://www.bohemiancoding.com/sketch -->
    <title>twitter</title>
    <desc>Created with Sketch.</desc>
    <defs/>
    <g id="Page-1" stroke="none" stroke-width="1" fill="none" fill-rule="evenodd" sketch:type="MSPage">
        <g id="website" sketch:type="MSArtboardGroup" transform="translate(-1265.000000, -26.000000)" fill="#FFFFFF">
            <g id="//-Hero-+-=-Link-External-Copy-+-=-Link-Internal-Copy" sketch:type="MSLayerGroup">
                <g id="//-Hero" sketch:type="MSShapeGroup">
                    <g id="=-BG">
                        <path d="M1265,40.1538462 L1265.95,40.1538462 C1267.73125,40.1538462 1269.5125,39.5384615 1270.81875,38.4307692 C1269.15625,38.4307692 1267.73125,37.2 1267.1375,35.6 C1267.375,35.6 1267.6125,35.7230769 1267.85,35.7230769 C1268.20625,35.7230769 1268.5625,35.7230769 1268.91875,35.6 C1267.1375,35.2307692 1265.7125,33.6307692 1265.7125,31.6615385 C1266.1875,31.9076923 1266.78125,32.1538462 1267.49375,32.1538462 C1266.425,31.4153846 1265.83125,30.1846154 1265.83125,28.7076923 C1265.83125,27.9692308 1266.06875,27.2307692 1266.30625,26.6153846 C1268.20625,29.0769231 1271.05625,30.6769231 1274.38125,30.8 C1274.2625,30.6769231 1274.2625,30.3076923 1274.2625,30.0615385 C1274.2625,27.8461538 1276.04375,26 1278.18125,26 C1279.25,26 1280.31875,26.4923077 1281.03125,27.2307692 C1281.8625,27.1076923 1282.8125,26.7384615 1283.525,26.2461538 C1283.2875,27.2307692 1282.575,27.9692308 1281.8625,28.4615385 C1282.575,28.4615385 1283.2875,28.2153846 1284,27.8461538 C1283.525,28.7076923 1282.8125,29.3230769 1282.1,29.9384615 L1282.1,30.4307692 C1282.1,35.8461538 1278.18125,42 1270.9375,42 C1268.68125,42 1266.6625,41.3846154 1265,40.1538462 Z" id="twitter"/>
                    </g>
                </g>
            </g>
        </g>
    </g>
</svg>